# xmcd
#
# Track frame offsets: 
#        150
#        12546
#        27456
#        37668
#        58387
#        73775
#        88530
#        109151
#        119047
#        130043
#        141208
#        154227
#        169115
#
# Disc length: 2402 seconds
#
# Revision: 0
# Processed by: cddbd v1.5.2PL0 Copyright (c) Steve Scherf et al.
# Submitted via: ExactAudioCopy v0.99pb5
#
DISCID=b909600d
DTITLE=Si Cranstoun - Old School
DYEAR=2015
DGENRE=R&B
TTITLE0=Old School
TTITLE1=Vegas Baby
TTITLE2=Jukebox Jump
TTITLE3=Brazilian
TTITLE4=Count On Me
TTITLE5=Commoner To King
TTITLE6=Right Girl
TTITLE7=Lover Please
TTITLE8=Big Bess
TTITLE9=A Christmas Twist
TTITLE10=Thames River Song
TTITLE11=Skinny Jeans
TTITLE12=Happy Birthday
EXTD=
EXTT0=
EXTT1=
EXTT2=
EXTT3=
EXTT4=
EXTT5=
EXTT6=
EXTT7=
EXTT8=
EXTT9=
EXTT10=
EXTT11=
EXTT12=
PLAYORDER=
